<svg width="18" height="11" viewBox="0 0 18 11" fill="none" xmlns="http://www.w3.org/2000/svg">
<path fill-rule="evenodd" clip-rule="evenodd" d="M16.4537 10.9993C16.752 11.0084 17.0462 10.9283 17.2987 10.7691C17.5513 10.6099 17.7507 10.3788 17.8715 10.1056C17.9923 9.83231 18.0291 9.52923 17.977 9.23497C17.9249 8.94071 17.7864 8.66854 17.5791 8.45351L10.0913 0.474012C9.95093 0.324346 9.78146 0.204997 9.59332 0.123457C9.40518 0.0419166 9.20234 7.69116e-07 8.99734 7.87038e-07C8.79233 8.0496e-07 8.5895 0.0419167 8.40136 0.123457C8.21321 0.204997 8.04375 0.324346 7.90342 0.474012L0.415548 8.45351C0.278734 8.59693 0.171625 8.76611 0.100397 8.95119C0.0291689 9.13626 -0.00476852 9.33369 0.000539651 9.53196C0.00584782 9.73023 0.0502967 9.92551 0.131325 10.1065C0.212355 10.2875 0.32836 10.4505 0.472649 10.5864C0.61694 10.7222 0.786661 10.8282 0.972027 10.898C1.15739 10.9679 1.35473 11.0003 1.55267 10.9934C1.75061 10.9865 1.94523 10.9406 2.12531 10.8581C2.30539 10.7755 2.46736 10.658 2.60189 10.5125L8.99734 3.69597L15.3928 10.5108C15.5281 10.6591 15.6916 10.7788 15.8739 10.8626C16.0561 10.9465 16.2532 10.993 16.4537 10.9993Z" fill="#BDCADB"/>
</svg>
