<svg width="30" height="30" viewBox="0 0 30 30" fill="none" xmlns="http://www.w3.org/2000/svg">
<path d="M0.435094 15.9422C0.156419 15.663 0 15.2855 0 14.8919C0 14.4983 0.156419 14.1207 0.435094 13.8415L13.9012 0.433227C14.1815 0.155748 14.5608 0 14.956 0C15.3513 0 15.7306 0.155748 16.0109 0.433227L29.477 13.8415C29.6336 13.9751 29.7608 14.1395 29.8506 14.3243C29.9405 14.5091 29.9909 14.7104 29.9989 14.9156C30.0068 15.1208 29.9721 15.3254 29.8969 15.5166C29.8217 15.7078 29.7076 15.8814 29.5618 16.0266C29.4159 16.1718 29.2416 16.2854 29.0496 16.3603C28.8576 16.4352 28.6521 16.4698 28.446 16.4618C28.24 16.4539 28.0378 16.4037 27.8521 16.3142C27.6665 16.2248 27.5014 16.0981 27.3673 15.9422L14.9635 3.57673L2.55975 15.9422C2.42065 16.0818 2.25517 16.1927 2.07284 16.2683C1.89051 16.3439 1.69494 16.3829 1.49742 16.3829C1.2999 16.3829 1.10433 16.3439 0.922003 16.2683C0.739673 16.1927 0.574188 16.0818 0.435094 15.9422ZM16.0109 13.8415C15.7306 13.5641 15.3513 13.4083 14.956 13.4083C14.5608 13.4083 14.1815 13.5641 13.9012 13.8415L0.435094 27.2499C0.189971 27.5349 0.0618843 27.9015 0.0764294 28.2764C0.0909745 28.6514 0.24708 29.0071 0.513551 29.2724C0.780023 29.5377 1.13723 29.6931 1.5138 29.7076C1.89037 29.7221 2.25855 29.5946 2.54478 29.3505L14.9635 16.9851L27.3673 29.3356C27.6535 29.5797 28.0217 29.7072 28.3983 29.6927C28.7749 29.6782 29.1321 29.5228 29.3985 29.2575C29.665 28.9922 29.8211 28.6365 29.8357 28.2615C29.8502 27.8866 29.7221 27.52 29.477 27.235L16.0109 13.8415Z" fill="#E8FBFF"/>
</svg>
