<svg width="25" height="25" viewBox="0 0 25 25" fill="none" xmlns="http://www.w3.org/2000/svg">
<path d="M22.0025 25H2.99748C1.34467 25 0 23.6553 0 22.0025V2.99748C0 1.34467 1.34467 0 2.99748 0H22.0025C23.6553 0 25 1.34467 25 2.99748V22.0026C24.9999 23.6554 23.6553 25 22.0025 25ZM2.99748 0.544997C1.64518 0.544997 0.544996 1.64518 0.544996 2.99748V22.0026C0.544996 23.3549 1.64518 24.4551 2.99748 24.4551H22.0025C23.3548 24.4551 24.455 23.3549 24.455 22.0026V2.99748C24.455 1.64518 23.3548 0.544997 22.0025 0.544997H2.99748Z" fill="#0C1B2D"/>
<path d="M21.1812 6.98626H9.60495C9.45448 6.98626 9.33246 6.86424 9.33246 6.71377C9.33246 6.56329 9.45448 6.44127 9.60495 6.44127H21.1812C21.3317 6.44127 21.4537 6.56329 21.4537 6.71377C21.4537 6.86424 21.3317 6.98626 21.1812 6.98626ZM6.71375 6.98626H3.81873C3.66826 6.98626 3.54623 6.86424 3.54623 6.71377C3.54623 6.56329 3.66826 6.44127 3.81873 6.44127H6.71375C6.86422 6.44127 6.98625 6.56329 6.98625 6.71377C6.98625 6.86424 6.86422 6.98626 6.71375 6.98626ZM21.1812 12.7681H16.8403C16.6898 12.7681 16.5678 12.6462 16.5678 12.4956C16.5678 12.3452 16.6898 12.2231 16.8403 12.2231H21.1812C21.3317 12.2231 21.4537 12.3452 21.4537 12.4956C21.4537 12.6462 21.3317 12.7681 21.1812 12.7681ZM13.9497 12.7681H3.81873C3.66826 12.7681 3.54623 12.6462 3.54623 12.4956C3.54623 12.3452 3.66826 12.2231 3.81873 12.2231H13.9497C14.1002 12.2231 14.2222 12.3452 14.2222 12.4956C14.2222 12.6462 14.1001 12.7681 13.9497 12.7681ZM21.1812 18.5587H12.1223C11.9718 18.5587 11.8498 18.4368 11.8498 18.2862C11.8498 18.1357 11.9718 18.0137 12.1223 18.0137H21.1812C21.3317 18.0137 21.4537 18.1357 21.4537 18.2862C21.4537 18.4368 21.3317 18.5587 21.1812 18.5587ZM9.23163 18.5587H3.81873C3.66826 18.5587 3.54623 18.4368 3.54623 18.2862C3.54623 18.1357 3.66826 18.0137 3.81873 18.0137H9.23163C9.3821 18.0137 9.50413 18.1357 9.50413 18.2862C9.50413 18.4368 9.3821 18.5587 9.23163 18.5587Z" fill="#0C1B2D"/>
<path d="M8.1593 8.43181C7.21199 8.43181 6.44131 7.66113 6.44131 6.71382C6.44131 5.76651 7.21199 4.99583 8.1593 4.99583C9.10661 4.99583 9.87729 5.76651 9.87729 6.71382C9.87729 7.66113 9.10661 8.43181 8.1593 8.43181ZM8.1593 5.54088C7.5125 5.54088 6.9863 6.06707 6.9863 6.71387C6.9863 7.36068 7.5125 7.88687 8.1593 7.88687C8.8061 7.88687 9.33229 7.36068 9.33229 6.71387C9.33229 6.06707 8.8061 5.54088 8.1593 5.54088ZM15.395 14.218C14.4477 14.218 13.6771 13.4473 13.6771 12.5C13.6771 11.5527 14.4478 10.782 15.395 10.782C16.3423 10.782 17.113 11.5527 17.113 12.5C17.113 13.4473 16.3424 14.218 15.395 14.218ZM15.395 11.327C14.7483 11.327 14.2221 11.8532 14.2221 12.5C14.2221 13.1468 14.7483 13.673 15.395 13.673C16.0418 13.673 16.568 13.1468 16.568 12.5C16.5681 11.8532 16.0418 11.327 15.395 11.327ZM10.677 20.004C9.72976 20.004 8.95908 19.2333 8.95908 18.286C8.95908 17.3388 9.72976 16.5681 10.677 16.5681C11.6243 16.5681 12.395 17.3388 12.395 18.286C12.395 19.2333 11.6243 20.004 10.677 20.004ZM10.677 17.1131C10.0302 17.1131 9.50408 17.6393 9.50408 18.286C9.50408 18.9328 10.0303 19.459 10.677 19.459C11.3238 19.459 11.85 18.9328 11.85 18.286C11.85 17.6393 11.3238 17.1131 10.677 17.1131Z" fill="#0C1B2D"/>
</svg>
