<svg width="25" height="31" viewBox="0 0 25 31" fill="none" xmlns="http://www.w3.org/2000/svg">
<path d="M7.59485 10.2508L7.59207 10.2521L7.5879 10.2549L7.59485 10.2508ZM21.4199 9.99156C21.3233 9.89853 21.2161 9.81712 21.1005 9.74899C20.9368 9.65283 20.7551 9.59119 20.5666 9.56788C20.3781 9.54457 20.1868 9.56009 20.0046 9.61349C19.8223 9.66688 19.653 9.75701 19.5071 9.8783C19.3611 9.99959 19.2416 10.1495 19.156 10.3187C18.6777 11.2597 18.0178 12.0972 17.2143 12.7831C17.3375 12.0922 17.3998 11.3919 17.4005 10.6901C17.4031 8.55578 16.839 6.45884 15.7655 4.61281C14.692 2.76678 13.1475 1.23759 11.2893 0.180947C11.0845 0.0648341 10.8535 0.00259455 10.618 7.9381e-05C10.3825 -0.00243578 10.1503 0.054856 9.94304 0.166569C9.73582 0.278282 9.56048 0.440747 9.43349 0.63869C9.30649 0.836634 9.23202 1.06355 9.21708 1.29812C9.13932 2.61225 8.79505 3.89696 8.20513 5.0744C7.6152 6.25184 6.79191 7.29752 5.78512 8.14808L5.46567 8.40728C4.41235 9.11451 3.48004 9.98643 2.70454 10.9895C1.49937 12.5047 0.664519 14.2792 0.266221 16.1724C-0.132077 18.0656 -0.0828698 20.0254 0.409939 21.8963C0.902749 23.7672 1.8256 25.4978 3.10531 26.9508C4.38501 28.4037 5.98636 29.5392 7.78235 30.267C7.99321 30.3527 8.22193 30.3853 8.44839 30.362C8.67485 30.3387 8.8921 30.2602 9.08101 30.1334C9.26993 30.0066 9.42472 29.8354 9.53176 29.6349C9.6388 29.4344 9.69481 29.2107 9.69486 28.9835C9.6937 28.8367 9.67029 28.6909 9.62541 28.551C9.31467 27.3854 9.22516 26.1721 9.36152 24.9736C10.6761 27.4471 12.7859 29.4077 15.3518 30.5401C15.6649 30.6797 16.0188 30.6985 16.3449 30.5927C18.372 29.9397 20.198 28.7803 21.6497 27.2246C23.1013 25.6689 24.1302 23.7687 24.6388 21.7044C25.1473 19.6402 25.1185 17.4804 24.5551 15.4304C23.9917 13.3804 22.9125 11.5081 21.4199 9.99156ZM15.9963 27.7762C14.7856 27.164 13.7175 26.3043 12.8616 25.2531C12.0056 24.2019 11.381 22.9827 11.0282 21.6747C10.9203 21.2343 10.8369 20.7882 10.7782 20.3386C10.7387 20.0523 10.6105 19.7854 10.4115 19.5754C10.2125 19.3654 9.95271 19.2227 9.66847 19.1673C9.58107 19.1504 9.49222 19.1421 9.40319 19.1424C9.15916 19.1422 8.91937 19.2061 8.70797 19.3278C8.49658 19.4494 8.32103 19.6245 8.19902 19.8354C7.04685 21.8193 6.46758 24.0827 6.5254 26.3749C5.51172 25.5886 4.66452 24.6093 4.03291 23.4938C3.40129 22.3783 2.99783 21.1488 2.8459 19.8765C2.69397 18.6042 2.7966 17.3145 3.14784 16.0821C3.49908 14.8498 4.09194 13.6992 4.89206 12.6972C5.49958 11.9097 6.23247 11.227 7.06151 10.6763C7.09779 10.6531 7.13258 10.6276 7.16568 10.6C7.16568 10.6 7.57679 10.2605 7.59068 10.2535C9.57013 8.58337 10.9781 6.33852 11.6185 3.83186C13.1316 5.22814 14.1404 7.08394 14.4882 9.11108C14.8361 11.1382 14.5035 13.2232 13.5421 15.0424C13.4149 15.2852 13.3626 15.5602 13.3919 15.8326C13.4212 16.1051 13.5308 16.3627 13.7068 16.5731C13.8827 16.7834 14.1172 16.9369 14.3806 17.0143C14.644 17.0917 14.9245 17.0895 15.1866 17.0078C17.314 16.342 19.1859 15.0418 20.5505 13.2821C21.3709 14.4911 21.9073 15.8692 22.1197 17.3139C22.3322 18.7586 22.2151 20.2324 21.7774 21.6257C21.3396 23.0189 20.5924 24.2956 19.5914 25.3605C18.5904 26.4255 17.3615 27.2512 15.9963 27.7762Z" fill="#F48273"/>
</svg>
