<svg width="26" height="36" viewBox="0 0 26 36" fill="none" xmlns="http://www.w3.org/2000/svg">
<path d="M20.0977 0H5.48121C4.02751 0 2.63334 0.568814 1.60542 1.58131C0.577496 2.5938 1.44026e-05 3.96704 1.44026e-05 5.39893V34.1932C-0.00126375 34.5103 0.0825515 34.8221 0.242974 35.0971C0.403396 35.372 0.634729 35.6003 0.913547 35.7589C1.1913 35.9169 1.50636 36 1.82708 36C2.1478 36 2.46286 35.9169 2.74061 35.7589L12.7895 30.036L22.8383 35.7589C23.1168 35.9144 23.4318 35.995 23.7519 35.9929C24.0719 35.995 24.387 35.9144 24.6654 35.7589C24.9442 35.6003 25.1756 35.372 25.336 35.0971C25.4964 34.8221 25.5802 34.5103 25.5789 34.1932V5.39893C25.5789 3.96704 25.0015 2.5938 23.9735 1.58131C22.9456 0.568814 21.5514 0 20.0977 0ZM21.9248 31.0798L13.703 26.4008C13.4253 26.2428 13.1102 26.1596 12.7895 26.1596C12.4688 26.1596 12.1537 26.2428 11.8759 26.4008L3.65415 31.0798V5.39893C3.65415 4.92163 3.84664 4.46389 4.18928 4.12639C4.53192 3.78889 4.99664 3.59928 5.48121 3.59928H20.0977C20.5823 3.59928 21.047 3.78889 21.3897 4.12639C21.7323 4.46389 21.9248 4.92163 21.9248 5.39893V31.0798Z" fill="#E8FBFF"/>
</svg>
