<svg width="10" height="10" viewBox="0 0 10 10" fill="none" xmlns="http://www.w3.org/2000/svg">
<path d="M7.14071 3.36429L6.63571 2.85929L5 4.495L3.36429 2.85929L2.85929 3.36429L4.495 5L2.86 6.635L3.365 7.14L5 5.505L6.64 7.145L7.145 6.64L5.505 5L7.14071 3.36429Z" fill="black"/>
<path d="M8.57143 0H1.42857C1.04984 0.000491391 0.686764 0.151159 0.418962 0.418962C0.151159 0.686764 0.000491391 1.04984 0 1.42857V8.57143C0.000491391 8.95016 0.151159 9.31324 0.418962 9.58104C0.686764 9.84884 1.04984 9.99951 1.42857 10H8.57143C8.95016 9.99951 9.31324 9.84884 9.58104 9.58104C9.84884 9.31324 9.99951 8.95016 10 8.57143V1.42857C9.99951 1.04984 9.84884 0.686764 9.58104 0.418962C9.31324 0.151159 8.95016 0.000491391 8.57143 0ZM9.28572 8.57143C9.28559 8.76083 9.21029 8.94244 9.07636 9.07636C8.94244 9.21029 8.76083 9.28559 8.57143 9.28572H1.42857C1.23917 9.28559 1.05756 9.21029 0.923635 9.07636C0.789708 8.94244 0.714413 8.76083 0.714286 8.57143V1.42857C0.714413 1.23917 0.789708 1.05756 0.923635 0.923635C1.05756 0.789708 1.23917 0.714413 1.42857 0.714286H8.57143C8.76083 0.714413 8.94244 0.789708 9.07636 0.923635C9.21029 1.05756 9.28559 1.23917 9.28572 1.42857V8.57143Z" fill="black"/>
</svg>
