<svg width="35" height="35" viewBox="0 0 35 35" fill="none" xmlns="http://www.w3.org/2000/svg">
<path d="M23.1567 23.1567L21.2077 17.2723L9.96379 6.02844L6.02844 9.96379L17.2723 21.2077L23.1567 23.1567ZM0.815569 0.815569C0.557018 1.07388 0.35191 1.38062 0.211969 1.71825C0.0720288 2.05587 0 2.41777 0 2.78325C0 3.14873 0.0720288 3.51062 0.211969 3.84825C0.35191 4.18587 0.557018 4.49261 0.815569 4.75092L3.71185 7.64721L7.64721 3.71185L4.75092 0.815569C4.49261 0.557018 4.18587 0.35191 3.84825 0.211969C3.51062 0.0720288 3.14873 0 2.78325 0C2.41777 0 2.05587 0.0720288 1.71825 0.211969C1.38062 0.35191 1.07388 0.557018 0.815569 0.815569ZM32.8125 6.56219H17.3051L19.4926 8.74972H32.8125V32.8125H8.74972V19.4926L6.56219 17.3051V32.8125C6.56219 33.3926 6.79266 33.949 7.2029 34.3593C7.61314 34.7695 8.16955 35 8.74972 35H32.8125C33.3926 35 33.949 34.7695 34.3593 34.3593C34.7695 33.949 35 33.3926 35 32.8125V8.74972C35 8.16955 34.7695 7.61314 34.3593 7.2029C33.949 6.79266 33.3926 6.56219 32.8125 6.56219Z" fill="#0C1B2D"/>
</svg>
