<svg width="28" height="28" viewBox="0 0 28 28" fill="none" xmlns="http://www.w3.org/2000/svg">
<path d="M14 0C6.272 0 0 6.272 0 14C0 21.728 6.272 28 14 28C21.728 28 28 21.728 28 14C28 6.272 21.728 0 14 0ZM14 25.2C7.826 25.2 2.8 20.174 2.8 14C2.8 7.826 7.826 2.8 14 2.8C20.174 2.8 25.2 7.826 25.2 14C25.2 20.174 20.174 25.2 14 25.2ZM19.432 8.806L11.2 17.038L8.568 14.406C8.022 13.86 7.14 13.86 6.594 14.406C6.048 14.952 6.048 15.834 6.594 16.38L10.22 20.006C10.766 20.552 11.648 20.552 12.194 20.006L21.42 10.78C21.966 10.234 21.966 9.352 21.42 8.806C20.874 8.26 19.978 8.26 19.432 8.806Z" fill="#E8FBFF"/>
</svg>
