<svg width="62" height="83" viewBox="0 0 62 83" fill="none" xmlns="http://www.w3.org/2000/svg">
<path d="M54.619 83H7.38095C5.4234 83 3.54603 82.2192 2.16183 80.8295C0.777634 79.4397 0 77.5547 0 75.5893V13.3393C0 11.3738 0.777634 9.4889 2.16183 8.09912C3.54603 6.70934 5.4234 5.92857 7.38095 5.92857H14.7619V8.89286H7.38095C6.20642 8.89286 5.08 9.36132 4.24948 10.1952C3.41896 11.0291 2.95238 12.16 2.95238 13.3393V75.5893C2.95238 76.7685 3.41896 77.8995 4.24948 78.7334C5.08 79.5672 6.20642 80.0357 7.38095 80.0357H54.619C55.7936 80.0357 56.92 79.5672 57.7505 78.7334C58.581 77.8995 59.0476 76.7685 59.0476 75.5893V13.3393C59.0476 12.16 58.581 11.0291 57.7505 10.1952C56.92 9.36132 55.7936 8.89286 54.619 8.89286H47.2381V5.92857H54.619C56.5766 5.92857 58.454 6.70934 59.8382 8.09912C61.2224 9.4889 62 11.3738 62 13.3393V75.5893C62 77.5547 61.2224 79.4397 59.8382 80.8295C58.454 82.2192 56.5766 83 54.619 83ZM56.0952 75.5893V13.3393C56.0952 12.9462 55.9397 12.5692 55.6629 12.2913C55.386 12.0133 55.0106 11.8571 54.619 11.8571H47.2381V14.8214H53.1429V74.1071H8.85714V14.8214H14.7619V11.8571H7.38095C6.98944 11.8571 6.61397 12.0133 6.33713 12.2913C6.06029 12.5692 5.90476 12.9462 5.90476 13.3393V75.5893C5.90476 75.9824 6.06029 76.3594 6.33713 76.6373C6.61397 76.9153 6.98944 77.0714 7.38095 77.0714H54.619C55.0106 77.0714 55.386 76.9153 55.6629 76.6373C55.9397 76.3594 56.0952 75.9824 56.0952 75.5893ZM44.2857 19.2679V7.41071C44.2857 7.01763 44.1302 6.64064 43.8533 6.36268C43.5765 6.08473 43.201 5.92857 42.8095 5.92857H36.9048C36.9048 4.35622 36.2827 2.84826 35.1753 1.73644C34.0679 0.624615 32.566 0 31 0C29.434 0 27.9321 0.624615 26.8247 1.73644C25.7173 2.84826 25.0952 4.35622 25.0952 5.92857H19.1905C18.799 5.92857 18.4235 6.08473 18.1467 6.36268C17.8698 6.64064 17.7143 7.01763 17.7143 7.41071V19.2679C17.7143 19.6609 17.8698 20.0379 18.1467 20.3159C18.4235 20.5938 18.799 20.75 19.1905 20.75H42.8095C43.201 20.75 43.5765 20.5938 43.8533 20.3159C44.1302 20.0379 44.2857 19.6609 44.2857 19.2679ZM20.6667 8.89286H26.5714C26.9629 8.89286 27.3384 8.7367 27.6153 8.45875C27.8921 8.18079 28.0476 7.8038 28.0476 7.41071V5.92857C28.0476 5.14239 28.3587 4.38842 28.9124 3.8325C29.466 3.27659 30.217 2.96429 31 2.96429C31.783 2.96429 32.534 3.27659 33.0877 3.8325C33.6413 4.38842 33.9524 5.14239 33.9524 5.92857V7.41071C33.9524 7.8038 34.1079 8.18079 34.3847 8.45875C34.6616 8.7367 35.0371 8.89286 35.4286 8.89286H41.3333V17.7857H20.6667V8.89286ZM35.4286 11.8571H26.5714V14.8214H35.4286V11.8571ZM47.2381 28.1607H32.4762V31.125H47.2381V28.1607ZM47.2381 37.0536H32.4762V40.0179H47.2381V37.0536ZM47.2381 45.9464H32.4762V48.9107H47.2381V45.9464ZM47.2381 54.8393H32.4762V57.8036H47.2381V54.8393ZM26.5714 65.2143V56.3214C26.5714 55.9283 26.4159 55.5513 26.1391 55.2734C25.8622 54.9954 25.4867 54.8393 25.0952 54.8393H16.2381C15.8466 54.8393 15.4711 54.9954 15.1943 55.2734C14.9174 55.5513 14.7619 55.9283 14.7619 56.3214V65.2143C14.7619 65.6074 14.9174 65.9844 15.1943 66.2623C15.4711 66.5403 15.8466 66.6964 16.2381 66.6964H25.0952C25.4867 66.6964 25.8622 66.5403 26.1391 66.2623C26.4159 65.9844 26.5714 65.6074 26.5714 65.2143ZM17.7143 57.8036H23.619V63.7321H17.7143V57.8036ZM47.2381 54.8393H32.4762V57.8036H47.2381V54.8393ZM26.5714 65.2143V56.3214C26.5714 55.9283 26.4159 55.5513 26.1391 55.2734C25.8622 54.9954 25.4867 54.8393 25.0952 54.8393H16.2381C15.8466 54.8393 15.4711 54.9954 15.1943 55.2734C14.9174 55.5513 14.7619 55.9283 14.7619 56.3214V65.2143C14.7619 65.6074 14.9174 65.9844 15.1943 66.2623C15.4711 66.5403 15.8466 66.6964 16.2381 66.6964H25.0952C25.4867 66.6964 25.8622 66.5403 26.1391 66.2623C26.4159 65.9844 26.5714 65.6074 26.5714 65.2143ZM17.7143 57.8036H23.619V63.7321H17.7143V57.8036ZM47.2381 63.7321H32.4762V66.6964H47.2381V63.7321ZM20.2386 36.6237L26.1433 30.6952L24.0471 28.5905L18.9986 33.6595L15.5738 31.377L13.95 33.8373L18.3786 36.8016C18.6188 36.9637 18.9011 37.0513 19.1905 37.0536C19.3848 37.0547 19.5773 37.0173 19.7572 36.9436C19.9371 36.8698 20.1006 36.7611 20.2386 36.6237ZM20.2386 48.4809L26.1433 42.5523L24.0471 40.4477L18.9986 45.5166L15.5738 43.2341L13.95 45.6945L18.3786 48.6588C18.6188 48.8208 18.9011 48.9084 19.1905 48.9107C19.3848 48.9118 19.5773 48.8745 19.7572 48.8007C19.9371 48.7269 20.1006 48.6183 20.2386 48.4809Z" fill="white"/>
</svg>
