<svg width="10" height="10" viewBox="0 0 10 10" fill="none" xmlns="http://www.w3.org/2000/svg">
<path d="M8.57143 0H1.42857C1.04984 0.000491391 0.686764 0.151159 0.418962 0.418962C0.151159 0.686764 0.000491391 1.04984 0 1.42857V8.57143C0.000491391 8.95016 0.151159 9.31324 0.418962 9.58104C0.686764 9.84884 1.04984 9.99951 1.42857 10H8.57143C8.95016 9.99951 9.31324 9.84884 9.58104 9.58104C9.84884 9.31324 9.99951 8.95016 10 8.57143V1.42857C9.99951 1.04984 9.84884 0.686764 9.58104 0.418962C9.31324 0.151159 8.95016 0.000491391 8.57143 0ZM9.28572 8.57143C9.28559 8.76083 9.21029 8.94244 9.07636 9.07636C8.94244 9.21029 8.76083 9.28559 8.57143 9.28572H1.42857C1.23917 9.28559 1.05756 9.21029 0.923635 9.07636C0.789708 8.94244 0.714413 8.76083 0.714286 8.57143V1.42857C0.714413 1.23917 0.789708 1.05756 0.923635 0.923635C1.05756 0.789708 1.23917 0.714413 1.42857 0.714286H8.57143C8.76083 0.714413 8.94244 0.789708 9.07636 0.923635C9.21029 1.05756 9.28559 1.23917 9.28572 1.42857V8.57143Z" fill="black"/>
<path d="M3.47246 5.7813L2.11843 5.35572C2.11843 5.35572 1.95858 5.29234 2.0103 5.14747C2.0197 5.11577 2.04321 5.09314 2.10903 5.04786C2.40993 4.84866 7.66149 3.02866 7.66149 3.02866C7.66149 3.02866 7.81194 2.97886 7.89657 3.01055C7.93888 3.02413 7.96239 3.04224 7.9859 3.1011C7.9953 3.12374 8 3.16901 8 3.21428C8 3.24597 7.9953 3.27767 7.9906 3.32747C7.95769 3.82548 7.00328 7.53339 7.00328 7.53339C7.00328 7.53339 6.94687 7.7507 6.74 7.75975C6.66478 7.76428 6.57545 7.74617 6.46731 7.65562C6.06299 7.3206 4.67134 6.41965 4.36575 6.22498C4.34694 6.21592 4.34224 6.19781 4.34224 6.18423C4.33754 6.16159 4.36105 6.13896 4.36105 6.13896C4.36105 6.13896 6.75609 4.19539 6.8172 3.97808C6.82191 3.95997 6.8031 3.95092 6.77959 3.95997C6.61974 4.01883 3.85799 5.58209 3.55239 5.77224C3.52418 5.79035 3.47246 5.7813 3.47246 5.7813Z" fill="black"/>
</svg>
